<?xml version="1.0" encoding="iso-8859-1"?>
<!-- Generator: Adobe Illustrator 16.0.0, SVG Export Plug-In . SVG Version: 6.00 Build 0)  -->
<!DOCTYPE svg PUBLIC "-//W3C//DTD SVG 1.1//EN" "http://www.w3.org/Graphics/SVG/1.1/DTD/svg11.dtd">
<svg version="1.1" id="Capa_1" xmlns="http://www.w3.org/2000/svg" xmlns:xlink="http://www.w3.org/1999/xlink" x="0px" y="0px"
	 width="612.014px" height="612.014px" viewBox="0 0 612.014 612.014" style="enable-background:new 0 0 612.014 612.014;"
	 xml:space="preserve">
<g>
	<g id="Shape_10">
		<g>
			<path d="M611.305,222.532c-5.901-57.573-50.141-104.378-107.571-113.836c-23.572-3.897-47.619-1.431-69.475,7.014
				C423.49,54.546,369.914,8.633,305.999,8.633c-63.893,0-117.48,45.913-128.259,107.076c-15.029-5.813-31.138-8.852-47.345-8.852
				l-3.369,0.044c-34.87,0.87-67.45,15.689-91.76,41.718c-24.344,26.072-36.808,59.566-35.112,94.304
				c3.193,64.84,55.052,116.335,120.024,121.257l16.02,205.365c1.476,18.971,17.628,33.835,36.764,33.835h261.497
				c19.146,0,35.299-14.864,36.764-33.835l15.942-204.298c34.914-1.475,67.967-16.835,91.397-42.632
				C603.487,295.2,615.114,259.659,611.305,222.532z M434.468,581.557H172.972c-7.74,0-14.281-6.022-14.875-13.686l-4.041-51.793
				h299.328l-4.041,51.804C448.759,575.545,442.219,581.557,434.468,581.557z M562.287,307.994
				c-20.304,22.352-49.305,35.277-79.693,35.553c-1.112-0.363-2.885-0.925-5.064-1.002l-10.559-0.407l-11.869,152.119H152.349
				l-11.825-151.503h-10.151c-57.948-0.011-105.501-44.316-108.276-100.876c-1.42-28.814,8.973-56.66,29.266-78.394
				c20.248-21.679,47.312-34.022,76.225-34.76l2.808-0.033c17.881,0,35.629,4.437,51.308,12.838l15.238,8.159l0.925-17.187
				c3.061-57.21,50.56-102.033,108.122-102.033c57.573,0,105.072,44.823,108.122,102.033l0.925,17.187l15.238-8.159
				c21.085-11.274,45.737-15.26,69.872-11.296c46.926,7.718,84.482,47.477,89.305,94.524
				C592.632,255.64,582.976,285.213,562.287,307.994z"/>
		</g>
	</g>
</g>
<g>
</g>
<g>
</g>
<g>
</g>
<g>
</g>
<g>
</g>
<g>
</g>
<g>
</g>
<g>
</g>
<g>
</g>
<g>
</g>
<g>
</g>
<g>
</g>
<g>
</g>
<g>
</g>
<g>
</g>
</svg>
